<svg width="264" height="264" viewBox="0 0 264 264" xmlns="http://www.w3.org/2000/svg" xmlns:xlink="http://www.w3.org/1999/xlink"><path fill="#fff" d="M0 0h264v264H0z"/><defs><path id="a" d="M0 0h8v8H0z"/></defs><use xlink:href="#a" x="32" y="32"/><use xlink:href="#a" x="32" y="40"/><use xlink:href="#a" x="32" y="48"/><use xlink:href="#a" x="32" y="56"/><use xlink:href="#a" x="32" y="64"/><use xlink:href="#a" x="32" y="72"/><use xlink:href="#a" x="32" y="80"/><use xlink:href="#a" x="32" y="96"/><use xlink:href="#a" x="32" y="112"/><use xlink:href="#a" x="32" y="128"/><use xlink:href="#a" x="32" y="136"/><use xlink:href="#a" x="32" y="152"/><use xlink:href="#a" x="32" y="176"/><use xlink:href="#a" x="32" y="184"/><use xlink:href="#a" x="32" y="192"/><use xlink:href="#a" x="32" y="200"/><use xlink:href="#a" x="32" y="208"/><use xlink:href="#a" x="32" y="216"/><use xlink:href="#a" x="32" y="224"/><use xlink:href="#a" x="40" y="32"/><use xlink:href="#a" x="40" y="80"/><use xlink:href="#a" x="40" y="96"/><use xlink:href="#a" x="40" y="128"/><use xlink:href="#a" x="40" y="136"/><use xlink:href="#a" x="40" y="144"/><use xlink:href="#a" x="40" y="160"/><use xlink:href="#a" x="40" y="176"/><use xlink:href="#a" x="40" y="224"/><use xlink:href="#a" x="48" y="32"/><use xlink:href="#a" x="48" y="48"/><use xlink:href="#a" x="48" y="56"/><use xlink:href="#a" x="48" y="64"/><use xlink:href="#a" x="48" y="80"/><use xlink:href="#a" x="48" y="96"/><use xlink:href="#a" x="48" y="112"/><use xlink:href="#a" x="48" y="120"/><use xlink:href="#a" x="48" y="128"/><use xlink:href="#a" x="48" y="144"/><use xlink:href="#a" x="48" y="152"/><use xlink:href="#a" x="48" y="176"/><use xlink:href="#a" x="48" y="192"/><use xlink:href="#a" x="48" y="200"/><use xlink:href="#a" x="48" y="208"/><use xlink:href="#a" x="48" y="224"/><use xlink:href="#a" x="56" y="32"/><use xlink:href="#a" x="56" y="48"/><use xlink:href="#a" x="56" y="56"/><use xlink:href="#a" x="56" y="64"/><use xlink:href="#a" x="56" y="80"/><use xlink:href="#a" x="56" y="104"/><use xlink:href="#a" x="56" y="120"/><use xlink:href="#a" x="56" y="144"/><use xlink:href="#a" x="56" y="152"/><use xlink:href="#a" x="56" y="176"/><use xlink:href="#a" x="56" y="192"/><use xlink:href="#a" x="56" y="200"/><use xlink:href="#a" x="56" y="208"/><use xlink:href="#a" x="56" y="224"/><use xlink:href="#a" x="64" y="32"/><use xlink:href="#a" x="64" y="48"/><use xlink:href="#a" x="64" y="56"/><use xlink:href="#a" x="64" y="64"/><use xlink:href="#a" x="64" y="80"/><use xlink:href="#a" x="64" y="96"/><use xlink:href="#a" x="64" y="104"/><use xlink:href="#a" x="64" y="120"/><use xlink:href="#a" x="64" y="128"/><use xlink:href="#a" x="64" y="152"/><use xlink:href="#a" x="64" y="176"/><use xlink:href="#a" x="64" y="192"/><use xlink:href="#a" x="64" y="200"/><use xlink:href="#a" x="64" y="208"/><use xlink:href="#a" x="64" y="224"/><use xlink:href="#a" x="72" y="32"/><use xlink:href="#a" x="72" y="80"/><use xlink:href="#a" x="72" y="96"/><use xlink:href="#a" x="72" y="104"/><use xlink:href="#a" x="72" y="136"/><use xlink:href="#a" x="72" y="144"/><use xlink:href="#a" x="72" y="152"/><use xlink:href="#a" x="72" y="176"/><use xlink:href="#a" x="72" y="224"/><use xlink:href="#a" x="80" y="32"/><use xlink:href="#a" x="80" y="40"/><use xlink:href="#a" x="80" y="48"/><use xlink:href="#a" x="80" y="56"/><use xlink:href="#a" x="80" y="64"/><use xlink:href="#a" x="80" y="72"/><use xlink:href="#a" x="80" y="80"/><use xlink:href="#a" x="80" y="96"/><use xlink:href="#a" x="80" y="112"/><use xlink:href="#a" x="80" y="128"/><use xlink:href="#a" x="80" y="144"/><use xlink:href="#a" x="80" y="160"/><use xlink:href="#a" x="80" y="176"/><use xlink:href="#a" x="80" y="184"/><use xlink:href="#a" x="80" y="192"/><use xlink:href="#a" x="80" y="200"/><use xlink:href="#a" x="80" y="208"/><use xlink:href="#a" x="80" y="216"/><use xlink:href="#a" x="80" y="224"/><use xlink:href="#a" x="88" y="96"/><use xlink:href="#a" x="88" y="104"/><use xlink:href="#a" x="88" y="112"/><use xlink:href="#a" x="88" y="120"/><use xlink:href="#a" x="88" y="152"/><use xlink:href="#a" x="88" y="160"/><use xlink:href="#a" x="96" y="48"/><use xlink:href="#a" x="96" y="80"/><use xlink:href="#a" x="96" y="88"/><use xlink:href="#a" x="96" y="96"/><use xlink:href="#a" x="96" y="112"/><use xlink:href="#a" x="96" y="120"/><use xlink:href="#a" x="96" y="128"/><use xlink:href="#a" x="96" y="152"/><use xlink:href="#a" x="96" y="160"/><use xlink:href="#a" x="96" y="168"/><use xlink:href="#a" x="96" y="176"/><use xlink:href="#a" x="96" y="184"/><use xlink:href="#a" x="96" y="192"/><use xlink:href="#a" x="96" y="208"/><use xlink:href="#a" x="96" y="216"/><use xlink:href="#a" x="96" y="224"/><use xlink:href="#a" x="104" y="32"/><use xlink:href="#a" x="104" y="48"/><use xlink:href="#a" x="104" y="56"/><use xlink:href="#a" x="104" y="72"/><use xlink:href="#a" x="104" y="88"/><use xlink:href="#a" x="104" y="112"/><use xlink:href="#a" x="104" y="136"/><use xlink:href="#a" x="104" y="144"/><use xlink:href="#a" x="104" y="152"/><use xlink:href="#a" x="104" y="168"/><use xlink:href="#a" x="104" y="176"/><use xlink:href="#a" x="104" y="200"/><use xlink:href="#a" x="104" y="208"/><use xlink:href="#a" x="104" y="224"/><use xlink:href="#a" x="112" y="40"/><use xlink:href="#a" x="112" y="48"/><use xlink:href="#a" x="112" y="56"/><use xlink:href="#a" x="112" y="64"/><use xlink:href="#a" x="112" y="80"/><use xlink:href="#a" x="112" y="88"/><use xlink:href="#a" x="112" y="96"/><use xlink:href="#a" x="112" y="104"/><use xlink:href="#a" x="112" y="160"/><use xlink:href="#a" x="112" y="168"/><use xlink:href="#a" x="112" y="184"/><use xlink:href="#a" x="112" y="200"/><use xlink:href="#a" x="112" y="216"/><use xlink:href="#a" x="112" y="224"/><use xlink:href="#a" x="120" y="40"/><use xlink:href="#a" x="120" y="56"/><use xlink:href="#a" x="120" y="96"/><use xlink:href="#a" x="120" y="104"/><use xlink:href="#a" x="120" y="120"/><use xlink:href="#a" x="120" y="136"/><use xlink:href="#a" x="120" y="144"/><use xlink:href="#a" x="120" y="160"/><use xlink:href="#a" x="120" y="168"/><use xlink:href="#a" x="120" y="184"/><use xlink:href="#a" x="120" y="200"/><use xlink:href="#a" x="120" y="208"/><use xlink:href="#a" x="120" y="224"/><use xlink:href="#a" x="128" y="32"/><use xlink:href="#a" x="128" y="40"/><use xlink:href="#a" x="128" y="48"/><use xlink:href="#a" x="128" y="80"/><use xlink:href="#a" x="128" y="88"/><use xlink:href="#a" x="128" y="128"/><use xlink:href="#a" x="128" y="136"/><use xlink:href="#a" x="128" y="144"/><use xlink:href="#a" x="128" y="152"/><use xlink:href="#a" x="128" y="192"/><use xlink:href="#a" x="128" y="200"/><use xlink:href="#a" x="128" y="208"/><use xlink:href="#a" x="128" y="216"/><use xlink:href="#a" x="128" y="224"/><use xlink:href="#a" x="136" y="32"/><use xlink:href="#a" x="136" y="72"/><use xlink:href="#a" x="136" y="88"/><use xlink:href="#a" x="136" y="96"/><use xlink:href="#a" x="136" y="112"/><use xlink:href="#a" x="136" y="120"/><use xlink:href="#a" x="136" y="128"/><use xlink:href="#a" x="136" y="144"/><use xlink:href="#a" x="136" y="152"/><use xlink:href="#a" x="136" y="160"/><use xlink:href="#a" x="136" y="168"/><use xlink:href="#a" x="136" y="184"/><use xlink:href="#a" x="136" y="192"/><use xlink:href="#a" x="136" y="200"/><use xlink:href="#a" x="136" y="216"/><use xlink:href="#a" x="144" y="32"/><use xlink:href="#a" x="144" y="40"/><use xlink:href="#a" x="144" y="48"/><use xlink:href="#a" x="144" y="56"/><use xlink:href="#a" x="144" y="64"/><use xlink:href="#a" x="144" y="72"/><use xlink:href="#a" x="144" y="80"/><use xlink:href="#a" x="144" y="88"/><use xlink:href="#a" x="144" y="96"/><use xlink:href="#a" x="144" y="184"/><use xlink:href="#a" x="144" y="200"/><use xlink:href="#a" x="144" y="224"/><use xlink:href="#a" x="152" y="32"/><use xlink:href="#a" x="152" y="40"/><use xlink:href="#a" x="152" y="64"/><use xlink:href="#a" x="152" y="72"/><use xlink:href="#a" x="152" y="120"/><use xlink:href="#a" x="152" y="152"/><use xlink:href="#a" x="152" y="160"/><use xlink:href="#a" x="152" y="168"/><use xlink:href="#a" x="152" y="176"/><use xlink:href="#a" x="152" y="216"/><use xlink:href="#a" x="152" y="224"/><use xlink:href="#a" x="160" y="40"/><use xlink:href="#a" x="160" y="48"/><use xlink:href="#a" x="160" y="80"/><use xlink:href="#a" x="160" y="88"/><use xlink:href="#a" x="160" y="104"/><use xlink:href="#a" x="160" y="120"/><use xlink:href="#a" x="160" y="128"/><use xlink:href="#a" x="160" y="136"/><use xlink:href="#a" x="160" y="144"/><use xlink:href="#a" x="160" y="152"/><use xlink:href="#a" x="160" y="160"/><use xlink:href="#a" x="160" y="168"/><use xlink:href="#a" x="160" y="176"/><use xlink:href="#a" x="160" y="184"/><use xlink:href="#a" x="160" y="192"/><use xlink:href="#a" x="160" y="200"/><use xlink:href="#a" x="160" y="208"/><use xlink:href="#a" x="160" y="216"/><use xlink:href="#a" x="160" y="224"/><use xlink:href="#a" x="168" y="96"/><use xlink:href="#a" x="168" y="112"/><use xlink:href="#a" x="168" y="128"/><use xlink:href="#a" x="168" y="144"/><use xlink:href="#a" x="168" y="160"/><use xlink:href="#a" x="168" y="192"/><use xlink:href="#a" x="168" y="200"/><use xlink:href="#a" x="176" y="32"/><use xlink:href="#a" x="176" y="40"/><use xlink:href="#a" x="176" y="48"/><use xlink:href="#a" x="176" y="56"/><use xlink:href="#a" x="176" y="64"/><use xlink:href="#a" x="176" y="72"/><use xlink:href="#a" x="176" y="80"/><use xlink:href="#a" x="176" y="96"/><use xlink:href="#a" x="176" y="104"/><use xlink:href="#a" x="176" y="112"/><use xlink:href="#a" x="176" y="120"/><use xlink:href="#a" x="176" y="128"/><use xlink:href="#a" x="176" y="136"/><use xlink:href="#a" x="176" y="144"/><use xlink:href="#a" x="176" y="152"/><use xlink:href="#a" x="176" y="160"/><use xlink:href="#a" x="176" y="176"/><use xlink:href="#a" x="176" y="192"/><use xlink:href="#a" x="176" y="216"/><use xlink:href="#a" x="184" y="32"/><use xlink:href="#a" x="184" y="80"/><use xlink:href="#a" x="184" y="112"/><use xlink:href="#a" x="184" y="128"/><use xlink:href="#a" x="184" y="144"/><use xlink:href="#a" x="184" y="160"/><use xlink:href="#a" x="184" y="192"/><use xlink:href="#a" x="184" y="200"/><use xlink:href="#a" x="184" y="224"/><use xlink:href="#a" x="192" y="32"/><use xlink:href="#a" x="192" y="48"/><use xlink:href="#a" x="192" y="56"/><use xlink:href="#a" x="192" y="64"/><use xlink:href="#a" x="192" y="80"/><use xlink:href="#a" x="192" y="152"/><use xlink:href="#a" x="192" y="160"/><use xlink:href="#a" x="192" y="168"/><use xlink:href="#a" x="192" y="176"/><use xlink:href="#a" x="192" y="184"/><use xlink:href="#a" x="192" y="192"/><use xlink:href="#a" x="192" y="200"/><use xlink:href="#a" x="192" y="208"/><use xlink:href="#a" x="192" y="216"/><use xlink:href="#a" x="200" y="32"/><use xlink:href="#a" x="200" y="48"/><use xlink:href="#a" x="200" y="56"/><use xlink:href="#a" x="200" y="64"/><use xlink:href="#a" x="200" y="80"/><use xlink:href="#a" x="200" y="128"/><use xlink:href="#a" x="200" y="136"/><use xlink:href="#a" x="200" y="160"/><use xlink:href="#a" x="200" y="168"/><use xlink:href="#a" x="200" y="176"/><use xlink:href="#a" x="200" y="184"/><use xlink:href="#a" x="200" y="192"/><use xlink:href="#a" x="200" y="200"/><use xlink:href="#a" x="200" y="216"/><use xlink:href="#a" x="208" y="32"/><use xlink:href="#a" x="208" y="48"/><use xlink:href="#a" x="208" y="56"/><use xlink:href="#a" x="208" y="64"/><use xlink:href="#a" x="208" y="80"/><use xlink:href="#a" x="208" y="96"/><use xlink:href="#a" x="208" y="112"/><use xlink:href="#a" x="208" y="144"/><use xlink:href="#a" x="208" y="200"/><use xlink:href="#a" x="216" y="32"/><use xlink:href="#a" x="216" y="80"/><use xlink:href="#a" x="216" y="112"/><use xlink:href="#a" x="216" y="120"/><use xlink:href="#a" x="216" y="128"/><use xlink:href="#a" x="216" y="144"/><use xlink:href="#a" x="216" y="152"/><use xlink:href="#a" x="216" y="168"/><use xlink:href="#a" x="216" y="176"/><use xlink:href="#a" x="216" y="192"/><use xlink:href="#a" x="216" y="216"/><use xlink:href="#a" x="216" y="224"/><use xlink:href="#a" x="224" y="32"/><use xlink:href="#a" x="224" y="40"/><use xlink:href="#a" x="224" y="48"/><use xlink:href="#a" x="224" y="56"/><use xlink:href="#a" x="224" y="64"/><use xlink:href="#a" x="224" y="72"/><use xlink:href="#a" x="224" y="80"/><use xlink:href="#a" x="224" y="104"/><use xlink:href="#a" x="224" y="112"/><use xlink:href="#a" x="224" y="128"/><use xlink:href="#a" x="224" y="136"/><use xlink:href="#a" x="224" y="144"/><use xlink:href="#a" x="224" y="168"/><use xlink:href="#a" x="224" y="176"/><use xlink:href="#a" x="224" y="184"/><use xlink:href="#a" x="224" y="192"/><use xlink:href="#a" x="224" y="208"/><use xlink:href="#a" x="224" y="224"/></svg>